<svg xmlns="http://www.w3.org/2000/svg" width="19" height="19" fill="none"><path fill="#B8BDBF" fill-rule="evenodd" d="M9.5 0C4.252 0 0 4.254 0 9.5A9.5 9.5 0 0 0 9.5 19a9.5 9.5 0 1 0 0-19Zm3.132 5.124a3.058 3.058 0 0 0-1.223-1.141c-.527-.28-1.136-.42-1.825-.42-.74 0-1.388.167-1.944.502-.556.334-.978.756-1.268 1.268-.291.509-.434 1.013-.434 1.51 0 .239.09.462.273.669.182.206.407.31.674.31.45 0 .757-.296.919-.887.17-.565.38-.993.627-1.283.246-.29.631-.435 1.153-.435.448 0 .813.145 1.095.432.282.288.424.64.424 1.06 0 .213-.045.412-.138.594-.093.184-.207.35-.343.498-.136.15-.355.37-.66.663-.345.334-.62.624-.825.868a2.933 2.933 0 0 0-.492.845c-.123.322-.186.704-.186 1.142 0 .35.085.614.254.792a.822.822 0 0 0 .623.266c.475 0 .757-.271.848-.814.052-.257.091-.437.117-.537a1.72 1.72 0 0 1 .11-.307c.049-.103.121-.214.217-.337.098-.123.229-.266.389-.427.584-.575.99-.984 1.214-1.227.227-.244.421-.532.587-.867.164-.335.245-.725.245-1.168a3.01 3.01 0 0 0-.431-1.569ZM10.17 13.43c.203.224.306.502.306.832 0 .366-.107.652-.321.862a1.032 1.032 0 0 1-.742.314c-.289 0-.542-.104-.759-.31-.216-.207-.324-.496-.324-.866 0-.33.105-.608.314-.832.21-.224.465-.338.769-.338.299 0 .552.114.757.338Z" clip-rule="evenodd"/></svg>