<svg width="20" height="20" fill="none" xmlns="http://www.w3.org/2000/svg"><g fill-rule="evenodd" clip-rule="evenodd" fill="#0F0F0F"><path d="M10 15.454a5.455 5.455 0 1 0 0-10.91 5.455 5.455 0 0 0 0 10.91zm0-1.818a3.636 3.636 0 1 0 0-7.273 3.636 3.636 0 0 0 0 7.273z"/><path d="M.595 2.978C0 4.145 0 5.672 0 8.728v2.545c0 3.055 0 4.582.595 5.749a5.455 5.455 0 0 0 2.383 2.384C4.145 20 5.672 20 8.728 20h2.545c3.055 0 4.582 0 5.749-.595a5.455 5.455 0 0 0 2.384-2.383c.594-1.167.594-2.694.594-5.75V8.728c0-3.055 0-4.582-.595-5.749A5.455 5.455 0 0 0 17.023.595C15.855 0 14.328 0 11.272 0H8.728C5.672 0 4.145 0 2.978.595A5.454 5.454 0 0 0 .595 2.978zm10.678-1.16H8.727c-1.557 0-2.616.002-3.434.068-.797.066-1.205.184-1.49.329a3.636 3.636 0 0 0-1.588 1.589c-.145.284-.263.692-.329 1.489-.066.818-.068 1.877-.068 3.434v2.546c0 1.557.002 2.616.068 3.434.066.797.184 1.205.329 1.49.348.684.904 1.24 1.589 1.588.284.145.692.264 1.489.328.818.067 1.877.069 3.434.069h2.546c1.557 0 2.616-.002 3.434-.069.797-.064 1.205-.183 1.49-.328a3.638 3.638 0 0 0 1.588-1.589c.145-.284.264-.692.328-1.489.067-.818.069-1.877.069-3.434V8.727c0-1.557-.002-2.616-.069-3.434-.064-.797-.183-1.205-.328-1.49a3.637 3.637 0 0 0-1.589-1.588c-.284-.145-.692-.263-1.489-.329-.818-.066-1.877-.068-3.434-.068z"/></g></svg>