<svg width="40" height="23" fill="none" xmlns="http://www.w3.org/2000/svg"><path d="M.475 3.976 0 3.141c1.37-.748 7.625-5.852 16.839-1.22 3.792 1.965 5.324 7.065 3.076 10.705a8.187 8.187 0 0 1-1.198 1.544c.47.892.866 1.793 1.179 2.695.738-1.866 1.86-3.355 3.419-4.452-.812-2.579.413-5.588 2.815-6.87 7.022-3.435 12.382.343 13.87.986-2.89 5.11-5.852 9.74-10.937 10.186-1.84 0-3.597-.886-4.75-2.411-2.267 1.728-3.35 4.528-3.35 8.696h-2.1c0-2.319-.547-4.955-1.82-7.507-4.066 1.877-4.928 1.473-8.004.258C4.427 13.161 2.738 8.056.473 3.974l.002.002zm25.187 8.665a3.898 3.898 0 0 0 5.288 1.49c2.635-1.47 4.736-4.303 6.163-6.724-1.139-.473-3.169-1.154-5.425-1.154-1.473 0-3.045.289-4.528 1.118-1.845.978-2.553 3.473-1.496 5.27h-.002zM2.799 3.853c.273.523.548 1.078.832 1.652 1.559 3.148 3.326 6.72 6.421 8.411.885.482 1.958.713 2.954.706.095 0 1.521-.05 2.988-.934-1.756-2.67-4.398-5.13-8.182-6.868L8.69 4.92c4.064 1.868 6.945 4.492 8.895 7.362 1.168-1.351 1.563-3.247 1.078-4.975a5.767 5.767 0 0 0-2.833-3.548C10.14.644 4.782 2.814 2.8 3.853z" fill="#00BB4E"/></svg>