<svg width="20" height="20" fill="none" xmlns="http://www.w3.org/2000/svg"><path d="m14.783 17.428.37-.239-.19-.397a5.501 5.501 0 0 0-9.925 0l-.19.397.37.239A8.794 8.794 0 0 0 10 18.833a8.794 8.794 0 0 0 4.783-1.405zm.618-1.24.318.576.47-.461a8.833 8.833 0 1 0-12.377 0l.469.461.318-.576A6.164 6.164 0 0 1 10 13a6.164 6.164 0 0 1 5.4 3.188zM19.5 10a9.5 9.5 0 1 1-19 0 9.5 9.5 0 0 1 19 0zm-9.5.5a3 3 0 1 0 0-6 3 3 0 0 0 0 6zm3.667-3a3.667 3.667 0 1 1-7.334 0 3.667 3.667 0 0 1 7.334 0z" fill="#000" stroke="#000"/></svg>