<svg width="73" height="73" fill="none" xmlns="http://www.w3.org/2000/svg"><g filter="url(#a)"><path d="M36.738 46.544c7.587 0 13.738-6.165 13.738-13.772C50.476 25.166 44.325 19 36.738 19S23 25.166 23 32.772c0 7.607 6.15 13.773 13.738 13.773z" fill="#FEFEFE"/><path d="M35.198 23.356a9.45 9.45 0 0 1 5.044.562 9.511 9.511 0 0 1 4.1 3.197c-.162.048-.325.097-.488.144a9.071 9.071 0 0 0-2.642-2.333 8.9 8.9 0 0 0-4.458-1.213 8.907 8.907 0 0 0-4.218 1.034 9.065 9.065 0 0 0-4.363 5.173 8.994 8.994 0 0 0 1.468 8.35 9.061 9.061 0 0 0 2.82 2.384 8.927 8.927 0 0 0 3.95 1.07 8.937 8.937 0 0 0 4.004-.796 9.014 9.014 0 0 0 5.198-9.453c.146-.09.296-.174.444-.26a9.535 9.535 0 0 1-.428 4.687 9.54 9.54 0 0 1-3.946 4.89 9.384 9.384 0 0 1-3.598 1.316 9.454 9.454 0 0 1-4.903-.585 9.542 9.542 0 0 1-5.076-4.861 9.505 9.505 0 0 1 .644-9.061 9.554 9.554 0 0 1 2.567-2.67 9.399 9.399 0 0 1 3.881-1.575zM33.245 28a5.83 5.83 0 0 1 7.251.248c-.183.062-.37.112-.556.168a5.36 5.36 0 0 0-4.091-1.012 5.386 5.386 0 0 0-3.383 2.022 5.384 5.384 0 0 0 .537 7.187 5.352 5.352 0 0 0 7.162.232 5.413 5.413 0 0 0 1.849-3.232c.175-.1.344-.21.52-.309a5.845 5.845 0 0 1-1.261 3.088 5.863 5.863 0 0 1-3.078 2.003 5.843 5.843 0 0 1-4.16-.46 5.904 5.904 0 0 1-2.656-2.808 5.888 5.888 0 0 1-.267-4.1A5.886 5.886 0 0 1 33.245 28zm11.324.35c.162-.033.323-.07.485-.107.279.52.509 1.065.686 1.628-.137.095-.273.192-.411.287a9.19 9.19 0 0 0-.755-1.8l-.005-.009zm-3.763.882c.172-.037.342-.085.515-.12a5.758 5.758 0 0 1 1.207 3.008c-.152.099-.3.206-.449.31a5.408 5.408 0 0 0-1.273-3.198zm-5.818.993c.687-.178 1.375-.353 2.063-.529.666.066 1.304.37 1.783.838a3.043 3.043 0 0 1 .386 3.893c-.584.41-1.168.818-1.753 1.225-.57.14-1.179.117-1.733-.078a3.022 3.022 0 0 1-1.618-1.331 3.041 3.041 0 0 1 .872-4.018z" fill="#F42A2A"/><path d="M32.536 24.747a8.907 8.907 0 0 1 4.218-1.034 8.9 8.9 0 0 1 4.458 1.213 9.071 9.071 0 0 1 2.642 2.333l.489-.143 2.608-.771a.4.4 0 0 1 .486.167c.127.203.017.504-.213.572-3.389.877-6.782 1.74-10.173 2.612-.688.176-1.376.351-2.063.53-.296.07-.59.155-.887.222-.175.015-.209-.27-.035-.296 1.957-.58 3.916-1.157 5.874-1.736.185-.056.373-.106.556-.168a5.83 5.83 0 0 0-7.25-.248 5.886 5.886 0 0 0-2.134 3.027 5.888 5.888 0 0 0 .267 4.1 5.904 5.904 0 0 0 2.656 2.807 5.842 5.842 0 0 0 4.16.46 5.863 5.863 0 0 0 3.078-2.002 5.845 5.845 0 0 0 1.261-3.088c.473-.28.944-.562 1.418-.84a7.27 7.27 0 0 1-.593 3.17.26.26 0 1 0 .473.219 7.78 7.78 0 0 0 .627-3.692c.384-.229.77-.456 1.154-.686a9.014 9.014 0 0 1-5.198 9.453 8.937 8.937 0 0 1-4.004.796 8.927 8.927 0 0 1-3.95-1.07 9.059 9.059 0 0 1-4.494-5.865 9.05 9.05 0 0 1 .206-4.87 9.065 9.065 0 0 1 4.363-5.172zm3.593-.043c-.091.204-.074.47.087.635.138.137.333.193.518.23.096.022.204.038.275.114.063.07.012.192-.082.195-.129.038-.264-.054-.258-.192-.21-.002-.417-.01-.626-.01a.66.66 0 0 0 .136.418c.148.18.388.25.613.263.232.013.486-.013.677-.16.27-.2.29-.674.008-.872-.201-.155-.463-.165-.692-.254-.089-.026-.133-.159-.045-.214.124-.081.319-.002.307.161.204.006.409.009.613.013a.633.633 0 0 0-.21-.477c-.21-.18-.504-.212-.769-.187-.22.022-.453.128-.552.337zm-1.33-.078c.096.374.206.744.294 1.12.046.172-.155.301-.305.24-.087-.038-.12-.136-.142-.22-.09-.342-.182-.684-.274-1.025l-.632.17c.102.381.2.763.307 1.143.077.269.297.502.579.548.308.05.64-.04.883-.238.225-.182.3-.5.228-.774-.098-.378-.202-.756-.303-1.134l-.635.17zm3.002 1.72.627.2c.068-.215.135-.43.204-.644l.43.137c-.066.215-.135.429-.202.644.21.065.418.133.628.197l.576-1.825-.628-.199c-.063.204-.13.406-.19.61-.146-.041-.29-.09-.434-.135.063-.205.129-.408.192-.612l-.627-.199-.576 1.826zm-5.368-.791c-.196.113-.384.274-.448.5-.066.222.044.466.22.606.168.13.4.11.591.05.141-.04.28-.127.432-.102.105.025.116.175.024.226a.2.2 0 0 1-.308-.04c-.174.112-.354.215-.53.323a.64.64 0 0 0 .342.287c.22.071.457 0 .653-.11.2-.11.396-.263.483-.482.134-.32-.113-.751-.47-.756-.24-.017-.457.104-.685.152-.089.031-.204-.04-.174-.14.053-.146.272-.187.353-.041.173-.107.348-.21.522-.316a.641.641 0 0 0-.354-.276c-.221-.065-.458.007-.651.119zm8.228-.163c-.325.549-.648 1.099-.972 1.649l.566.335c.324-.55.65-1.1.971-1.65l-.565-.334zM30.354 28.34c-.104.037-.159.144-.209.235-.079.164.066.37.244.363.166-.002.266-.164.312-.304.044-.19-.168-.37-.347-.294zm-.64 1.14a.263.263 0 0 0-.124.137 7.773 7.773 0 0 0-.626 3.614 7.748 7.748 0 0 0 1.279 3.793c.068.106.22.144.33.084.132-.061.189-.243.107-.365a7.285 7.285 0 0 1-.606-6.933c.1-.21-.16-.446-.36-.33zm13.223 7.066c-.094.04-.143.137-.19.222-.083.157.048.367.223.368.171.013.28-.156.328-.298.048-.197-.179-.384-.36-.292zm-10.528 1.09-.323.487.453.303c-.238.359-.478.717-.715 1.076l.536.359.716-1.077.453.302.324-.486c-.481-.322-.963-.642-1.444-.963zm8.531.104c-.412.098-.79.42-.885.845-.128.566.359 1.185.942 1.173.555-.009 1.105-.482 1.11-1.056.004-.583-.584-1.112-1.167-.962zm-6.903.92-.598 1.78c.434.147.869.295 1.304.44l.154-.46c-.237-.08-.476-.156-.71-.243l.074-.214.617.209c.05-.147.1-.293.148-.44-.206-.07-.411-.14-.617-.208l.07-.211.684.23c.05-.15.103-.301.152-.452-.426-.143-.852-.288-1.278-.43zm4.832.186c-.282.093-.564.188-.846.28l.592 1.784.612-.203c-.044-.138-.09-.275-.135-.412.225-.073.47-.142.628-.332.314-.344.136-.974-.296-1.127a.86.86 0 0 0-.555.01zm-3.327.35c-.008.627-.017 1.254-.023 1.881.21 0 .418.003.627.008.01-.278.008-.557.009-.835.103.138.199.282.3.422.12-.003.245.017.362-.004.104-.133.201-.271.304-.405-.003.278-.014.555-.013.833.21 0 .419.006.628.007.01-.627.017-1.254.024-1.88-.173-.001-.346-.004-.519-.007-.2.261-.398.525-.6.786-.193-.266-.384-.533-.575-.799-.175-.004-.35-.006-.524-.007zm7.778-10.55c.418-.094.834-.2 1.254-.288a9.18 9.18 0 0 1 .755 1.8c.138-.095.274-.192.411-.287.688-.481 1.376-.963 2.065-1.443a.394.394 0 0 1 .45 0c.227.146.218.523-.017.657-3.77 2.438-7.542 4.876-11.314 7.313-.128.113-.321-.076-.214-.207.243-.192.507-.356.757-.539.585-.407 1.17-.816 1.753-1.225.954-.665 1.906-1.332 2.86-1.998.149-.102.295-.21.448-.309a5.757 5.757 0 0 0-1.207-3.009c.487-.11.973-.227 1.46-.339a7.247 7.247 0 0 1 1.017 2.455l.462-.324a7.798 7.798 0 0 0-.94-2.257zm-2.388 9.723c.247-.113.532.113.535.37.007.211-.189.393-.394.398-.25.005-.454-.271-.384-.51a.414.414 0 0 1 .243-.258zm-2.145 1.05c.092-.029.182-.076.28-.066.155.015.231.241.12.349-.072.069-.176.084-.267.118l-.133-.401z" fill="#161616"/></g><defs><filter id="a" x=".7" y=".7" width="72.076" height="72.144" filterUnits="userSpaceOnUse" color-interpolation-filters="sRGB"><feFlood flood-opacity="0" result="BackgroundImageFix"/><feColorMatrix in="SourceAlpha" values="0 0 0 0 0 0 0 0 0 0 0 0 0 0 0 0 0 0 127 0" result="hardAlpha"/><feOffset dy="4"/><feGaussianBlur stdDeviation="11.15"/><feComposite in2="hardAlpha" operator="out"/><feColorMatrix values="0 0 0 0 0 0 0 0 0 0 0 0 0 0 0 0 0 0 0.67 0"/><feBlend in2="BackgroundImageFix" result="effect1_dropShadow_151_79"/><feBlend in="SourceGraphic" in2="effect1_dropShadow_151_79" result="shape"/></filter></defs></svg>