<svg width="263" height="263" fill="none" xmlns="http://www.w3.org/2000/svg"><g filter="url(#a)"><path d="M131.5 236.545c59.923 0 108.5-48.699 108.5-108.773C240 67.699 191.423 19 131.5 19S23 67.699 23 127.772c0 60.074 48.577 108.773 108.5 108.773z" fill="#FEFEFE"/><path d="M119.339 53.403c13.353-2.167 27.296-.658 39.837 4.44 12.86 5.18 24.204 14.044 32.388 25.252-1.287.378-2.572.765-3.859 1.135-5.672-7.427-12.793-13.738-20.866-18.428-10.629-6.215-22.907-9.564-35.213-9.576-11.551-.087-23.102 2.752-33.312 8.162-16.167 8.49-28.822 23.445-34.462 40.856-4.05 12.345-4.606 25.813-1.622 38.458 2.34 9.984 6.9 19.427 13.218 27.49a71.567 71.567 0 0 0 22.27 18.831 70.52 70.52 0 0 0 31.202 8.45c10.836.375 21.753-1.78 31.621-6.284 15.383-6.959 28.104-19.601 35.175-34.965 5.729-12.294 7.764-26.263 5.881-39.698 1.15-.717 2.335-1.377 3.506-2.058 1.972 12.363.838 25.224-3.377 37.02-5.627 15.92-16.834 29.757-31.169 38.618a74.117 74.117 0 0 1-28.415 10.397c-13.012 1.909-26.527.33-38.721-4.621-17.595-7.061-32.244-21.101-40.096-38.392-5.699-12.411-7.85-26.41-6.235-39.973 1.306-11.214 5.221-22.104 11.321-31.59a75.442 75.442 0 0 1 20.276-21.083c9.115-6.38 19.675-10.677 30.652-12.441zm-15.424 36.68c8.261-6.16 18.633-9.391 28.924-9.01 10.332.288 20.48 4.261 28.346 10.97-1.452.484-2.93.883-4.397 1.324-9.088-6.932-21.046-9.888-32.31-7.994-10.5 1.674-20.234 7.535-26.718 15.973-6.441 8.258-9.632 18.971-8.752 29.42.775 10.308 5.529 20.222 12.997 27.337 7.139 6.884 16.747 11.142 26.643 11.721 10.755.729 21.707-2.902 29.924-9.89 7.672-6.425 12.949-15.632 14.595-25.519 1.386-.789 2.718-1.669 4.113-2.44-.847 8.871-4.38 17.453-9.962 24.385-6.145 7.691-14.79 13.344-24.308 15.82-10.902 2.886-22.848 1.59-32.854-3.637-9.211-4.754-16.739-12.7-20.983-22.173-4.568-10.071-5.313-21.804-2.105-32.382 2.841-9.515 8.87-18.022 16.847-23.904zm89.433 2.759c1.284-.255 2.556-.555 3.831-.843a74.607 74.607 0 0 1 5.421 12.858c-1.083.753-2.161 1.519-3.251 2.266a72.541 72.541 0 0 0-5.962-14.212l-.039-.07zm-29.718 6.97c1.36-.296 2.701-.669 4.065-.953 5.328 6.796 8.762 15.139 9.537 23.763-1.206.777-2.365 1.629-3.547 2.442-.461-9.227-4.095-18.215-10.055-25.251zm-45.949 7.845a4738.26 4738.26 0 0 1 16.289-4.18c5.259.525 10.306 2.923 14.089 6.619 3.485 3.373 5.876 7.848 6.801 12.613 1.236 6.226-.17 12.906-3.756 18.13-4.61 3.235-9.223 6.461-13.844 9.678-4.499 1.107-9.312.921-13.686-.615-5.331-1.831-9.955-5.63-12.784-10.515-2.876-4.9-3.933-10.839-2.885-16.426 1.092-6.128 4.684-11.748 9.776-15.304z" fill="#F42A2A"/><path d="M98.314 64.388c10.21-5.41 21.761-8.249 33.312-8.162 12.305.012 24.584 3.361 35.213 9.576 8.073 4.69 15.194 11 20.866 18.428 1.287-.37 2.572-.757 3.858-1.135 6.867-2.031 13.734-4.054 20.601-6.088 1.382-.544 3.1.009 3.834 1.323 1.008 1.603.14 3.98-1.676 4.52-26.769 6.925-53.571 13.743-80.352 20.627a4679.793 4679.793 0 0 0-16.289 4.18c-2.341.564-4.661 1.233-7.008 1.758-1.383.117-1.649-2.127-.278-2.337 15.463-4.577 30.93-9.138 46.393-13.71 1.466-.442 2.945-.841 4.397-1.324-7.867-6.71-18.014-10.683-28.346-10.971-10.291-.381-20.663 2.85-28.925 9.011-7.977 5.882-14.005 14.389-16.846 23.904-3.209 10.578-2.463 22.311 2.105 32.382 4.244 9.474 11.772 17.42 20.982 22.173 10.007 5.227 21.953 6.524 32.855 3.637 9.518-2.476 18.163-8.129 24.308-15.82 5.582-6.932 9.114-15.514 9.962-24.385 3.735-2.208 7.456-4.438 11.194-6.641.327 8.559-1.257 17.189-4.678 25.039-.521.987-.03 2.314.979 2.761.997.519 2.332 0 2.757-1.033 4.014-9.113 5.678-19.226 4.948-29.152 3.038-1.81 6.085-3.604 9.117-5.423 1.883 13.435-.153 27.404-5.882 39.698-7.07 15.364-19.791 28.006-35.174 34.965-9.869 4.504-20.785 6.659-31.621 6.284a70.52 70.52 0 0 1-31.202-8.45 71.567 71.567 0 0 1-22.27-18.831c-6.319-8.063-10.877-17.506-13.218-27.49-2.984-12.645-2.428-26.112 1.622-38.458 5.64-17.41 18.295-32.366 34.462-40.856zm28.376-.339c-.721 1.609-.586 3.715.689 5.015 1.089 1.086 2.628 1.52 4.095 1.815.754.177 1.607.303 2.167.9.503.55.095 1.519-.647 1.546-1.015.294-2.083-.426-2.041-1.522-1.65-.012-3.293-.075-4.939-.084.03 1.17.287 2.395 1.068 3.307 1.171 1.428 3.065 1.978 4.843 2.077 1.838.105 3.838-.102 5.347-1.26 2.131-1.582 2.298-5.32.065-6.89-1.586-1.225-3.657-1.303-5.462-2.005-.704-.204-1.051-1.251-.36-1.687.985-.645 2.518-.017 2.428 1.27 1.613.045 3.227.069 4.843.102-.027-1.41-.554-2.845-1.655-3.766-1.659-1.417-3.984-1.68-6.077-1.477-1.742.168-3.579 1.006-4.364 2.659zm-10.5-.612c.757 2.95 1.625 5.876 2.32 8.84.362 1.36-1.228 2.38-2.407 1.897-.691-.303-.946-1.074-1.125-1.744-.716-2.697-1.44-5.392-2.161-8.087-1.668.444-3.332.891-4.996 1.342.811 3.01 1.586 6.028 2.427 9.026.611 2.122 2.347 3.964 4.571 4.327 2.433.393 5.061-.318 6.977-1.878 1.772-1.438 2.362-3.95 1.799-6.11-.775-2.992-1.592-5.975-2.388-8.96a915.45 915.45 0 0 0-5.017 1.347zm23.704 13.585c1.652.525 3.301 1.05 4.957 1.572.538-1.692 1.062-3.39 1.607-5.08 1.134.36 2.266.72 3.4 1.077-.524 1.698-1.071 3.388-1.595 5.086 1.652.52 3.301 1.056 4.957 1.56 1.511-4.807 3.032-9.61 4.547-14.418-1.653-.525-3.302-1.05-4.957-1.566-.5 1.605-1.024 3.201-1.506 4.813-1.149-.324-2.284-.711-3.424-1.066.503-1.614 1.017-3.222 1.52-4.834-1.649-.525-3.301-1.047-4.951-1.57-1.523 4.808-3.035 9.618-4.555 14.426zM97.5 70.772c-1.548.887-3.032 2.165-3.538 3.945-.518 1.759.347 3.685 1.736 4.786 1.329 1.027 3.155.87 4.669.4 1.117-.313 2.206-1.003 3.41-.808.835.201.916 1.383.194 1.783-.733.71-1.888.53-2.43-.31-1.38.88-2.802 1.693-4.194 2.548.638 1.011 1.533 1.909 2.703 2.263 1.742.567 3.61 0 5.158-.858 1.58-.88 3.127-2.083 3.816-3.814 1.057-2.53-.895-5.933-3.715-5.972-1.898-.135-3.604.822-5.406 1.203-.703.243-1.616-.312-1.377-1.11.42-1.152 2.15-1.477 2.787-.324 1.368-.843 2.754-1.656 4.128-2.494-.668-1.005-1.616-1.857-2.796-2.178-1.751-.513-3.616.054-5.145.94zm64.987-1.291c-2.568 4.336-5.122 8.68-7.678 13.026 1.491.88 2.978 1.764 4.469 2.647 2.556-4.345 5.128-8.684 7.672-13.036-1.491-.873-2.975-1.758-4.463-2.637zM81.085 92.767c-.83.29-1.258 1.134-1.653 1.857-.626 1.297.518 2.92 1.925 2.866 1.308-.015 2.098-1.3 2.46-2.404.35-1.491-1.322-2.925-2.732-2.319zm-5.056 9.008c-.446.222-.79.618-.979 1.081-3.906 8.933-5.591 18.815-4.945 28.543.674 10.641 4.182 21.093 10.1 29.954.538.84 1.736 1.137 2.613.666 1.035-.486 1.481-1.926.838-2.89-3.706-5.617-6.454-11.871-7.998-18.428-2.874-12.033-1.751-24.993 3.215-36.327.79-1.656-1.272-3.52-2.844-2.599zm104.432 55.8c-.745.315-1.134 1.086-1.508 1.755-.65 1.243.383 2.896 1.769 2.905 1.353.105 2.209-1.23 2.586-2.355.386-1.552-1.407-3.028-2.847-2.305zm-83.153 8.615c-.847 1.279-1.703 2.557-2.547 3.841 1.188.801 2.386 1.591 3.574 2.395-1.88 2.833-3.771 5.659-5.645 8.498 1.41.945 2.822 1.891 4.235 2.833 1.883-2.836 3.763-5.675 5.654-8.508 1.192.796 2.383 1.597 3.577 2.389.857-1.278 1.704-2.559 2.557-3.838-3.799-2.541-7.603-5.074-11.405-7.61zm67.382.816c-3.257.775-6.244 3.325-6.989 6.677-1.012 4.468 2.831 9.354 7.438 9.264 4.385-.069 8.725-3.808 8.77-8.346.024-4.6-4.619-8.78-9.219-7.595zm-54.52 7.268c-1.577 4.688-3.149 9.375-4.726 14.062 3.433 1.158 6.863 2.323 10.3 3.475.404-1.215.811-2.425 1.218-3.634-1.871-.642-3.757-1.236-5.612-1.921.2-.567.401-1.128.589-1.695 1.623.555 3.251 1.098 4.873 1.651.392-1.159.788-2.314 1.165-3.476-1.623-.546-3.245-1.104-4.87-1.638.179-.558.365-1.113.554-1.668 1.802.6 3.597 1.221 5.402 1.818.401-1.191.809-2.38 1.198-3.574-3.365-1.128-6.726-2.274-10.091-3.4zm38.159 1.465c-2.227.738-4.448 1.488-6.675 2.217 1.562 4.694 3.113 9.393 4.675 14.086 1.614-.525 3.218-1.074 4.831-1.605-.347-1.09-.712-2.17-1.065-3.253 1.775-.577 3.708-1.117 4.957-2.617 2.484-2.719 1.074-7.697-2.338-8.906-1.413-.513-2.979-.378-4.385.078zm-26.272 2.77c-.066 4.951-.135 9.902-.183 14.856 1.652 0 3.302.018 4.954.064.078-2.2.057-4.4.066-6.596.817 1.089 1.571 2.226 2.37 3.334.949-.028 1.934.132 2.862-.036.82-1.051 1.587-2.143 2.401-3.199-.027 2.193-.108 4.387-.105 6.581 1.655.005 3.307.044 4.963.057.081-4.955.129-9.906.188-14.858-1.364-.003-2.73-.024-4.098-.044-1.586 2.061-3.149 4.141-4.738 6.202-1.523-2.097-3.032-4.204-4.547-6.304-1.38-.04-2.756-.049-4.133-.057zm61.428-83.327c3.304-.738 6.588-1.575 9.902-2.271a72.544 72.544 0 0 1 5.962 14.212c1.09-.747 2.167-1.513 3.251-2.266 5.436-3.799 10.869-7.601 16.307-11.394 1.03-.747 2.518-.738 3.55-.003 1.799 1.155 1.73 4.132-.131 5.191-29.781 19.256-59.567 38.506-89.353 57.757-1.012.891-2.541-.598-1.691-1.636 1.918-1.512 4.005-2.812 5.977-4.255 4.622-3.217 9.235-6.443 13.844-9.677 7.535-5.249 15.054-10.518 22.582-15.776 1.182-.813 2.34-1.665 3.547-2.442-.776-8.624-4.209-16.967-9.537-23.763 3.847-.877 7.684-1.792 11.53-2.677a57.22 57.22 0 0 1 8.037 19.382c1.215-.853 2.431-1.705 3.649-2.554-1.506-6.289-4.047-12.321-7.426-17.828zm-18.861 76.794c1.949-.892 4.2.891 4.224 2.919.06 1.672-1.488 3.106-3.107 3.142-1.976.042-3.586-2.139-3.033-4.021.258-.942 1.039-1.665 1.916-2.04zm-16.942 8.288c.725-.222 1.443-.597 2.221-.519 1.218.123 1.82 1.905.943 2.754-.572.547-1.395.667-2.11.937-.353-1.059-.703-2.116-1.054-3.172z" fill="#161616"/></g><defs><filter id="a" x=".7" y=".7" width="261.6" height="262.145" filterUnits="userSpaceOnUse" color-interpolation-filters="sRGB"><feFlood flood-opacity="0" result="BackgroundImageFix"/><feColorMatrix in="SourceAlpha" values="0 0 0 0 0 0 0 0 0 0 0 0 0 0 0 0 0 0 127 0" result="hardAlpha"/><feOffset dy="4"/><feGaussianBlur stdDeviation="11.15"/><feComposite in2="hardAlpha" operator="out"/><feColorMatrix values="0 0 0 0 0 0 0 0 0 0 0 0 0 0 0 0 0 0 0.67 0"/><feBlend in2="BackgroundImageFix" result="effect1_dropShadow_18_77"/><feBlend in="SourceGraphic" in2="effect1_dropShadow_18_77" result="shape"/></filter></defs></svg>